<svg xmlns="http://www.w3.org/2000/svg" width="65" height="55" viewBox="0 0 65 55">
    <g fill="none" fill-rule="evenodd" transform="translate(1)">
        <path fill="#fff" fill-rule="nonzero" stroke="#fff" stroke-width=".5" d="M50.42 18.052c-.707-.707-1.633-1.197-2.722-1.47L16.553 8.309c-1.035-.272-2.124-.327-3.05-.109-1.306.327-3.049 1.252-3.81 4.029l-.49 1.796-1.526 5.661-1.742 6.479h-.327C2.886 26.164 0 27.634 0 31.77v16.494c0 4.138 2.886 5.607 5.608 5.607h32.29c2.722 0 5.608-1.47 5.608-5.607v-4.79c1.361-.272 3.103-1.252 3.866-4.083l2.613-9.744 1.198-4.41.49-1.796c.763-2.777-.272-4.464-1.252-5.39zM9.366 21.155l18.895 5.009H8.004l1.361-5.009zm32.29 27.11H41.6c0 3.158-2.287 3.648-3.648 3.648H5.717c-1.361 0-3.648-.49-3.648-3.648V31.716c0-3.157 2.287-3.647 3.648-3.647h32.29c1.36 0 3.647.49 3.647 3.647v16.55zm3.92-9.363c-.381 1.361-1.035 2.178-2.015 2.559v-9.745c0-.599-.054-1.088-.163-1.578l4.193 1.088-2.015 7.676zm2.613-10.017l-.163.545-5.826-1.524c-1.09-1.198-2.723-1.688-4.247-1.688h-2.124L9.855 19.25l.98-3.756L49.06 25.619l-.872 3.266zm1.634-5.988l-.218.817L11.38 13.588l.218-.816c.381-1.524 1.143-2.395 2.341-2.668.436-.108 1.144-.163 2.124.055l31.2 8.274c.925.273 1.524.654 1.851.98.871.817 1.144 1.96.708 3.484zm-32.071 7.458H8.004c-1.416 0-2.396.871-2.396 2.232v4.519c0 1.306.98 2.177 2.396 2.177h9.747c1.415 0 2.396-.87 2.396-2.232v-4.464c0-1.306-.926-2.232-2.396-2.232zm.435 6.75c0 .164 0 .273-.435.273H8.004c-.435 0-.435-.11-.435-.272v-4.519c0-.163 0-.272.435-.272h9.747c.435 0 .435.109.435.272v4.519zm20.038 5.207c.545 0 .98.435.98.98 0 .544-.435.98-.98.98H5.445a.976.976 0 0 1-.98-.98c0-.545.436-.98.98-.98h32.78zm-29.076 4.32c.544 0 .98.436.98.98 0 .545-.436.98-.98.98H5.445a.976.976 0 0 1-.98-.98c0-.544.436-.98.98-.98h3.703zm11.87 0c.49 0 .98.436.98.98 0 .545-.436.98-.98.98h-8.113a.976.976 0 0 1-.98-.98c0-.544.435-.98.98-.98h8.113z"/>
    </g>
</svg>