<svg xmlns="http://www.w3.org/2000/svg" width="60" height="55" viewBox="0 0 60 55">
    <g fill="none" fill-rule="evenodd">
        <g fill="#fff" fill-rule="nonzero">
            <path d="M48.863 52.823H1.04a1.04 1.04 0 0 0 0 2.08h47.823a1.04 1.04 0 0 0 0-2.08z"/>
            <path d="M9.357 40.348H3.119a1.04 1.04 0 0 0-1.04 1.04v12.475c0 .574.466 1.04 1.04 1.04h6.238a1.04 1.04 0 0 0 1.04-1.04V41.387a1.04 1.04 0 0 0-1.04-1.04zm-1.04 12.475H4.16V42.427h4.158v10.396zM21.832 29.951h-6.237a1.04 1.04 0 0 0-1.04 1.04v22.872c0 .574.466 1.04 1.04 1.04h6.237a1.04 1.04 0 0 0 1.04-1.04V30.991a1.04 1.04 0 0 0-1.04-1.04zm-1.04 22.872h-4.158V32.031h4.159v20.792zM34.308 34.11H28.07a1.04 1.04 0 0 0-1.04 1.04v18.713c0 .574.466 1.04 1.04 1.04h6.238a1.04 1.04 0 0 0 1.04-1.04V35.15a1.04 1.04 0 0 0-1.04-1.04zm-1.04 18.713H29.11V36.19h4.158v16.634zM46.784 21.634h-6.238a1.04 1.04 0 0 0-1.04 1.04v31.189c0 .574.466 1.04 1.04 1.04h6.238a1.04 1.04 0 0 0 1.04-1.04v-31.19a1.04 1.04 0 0 0-1.04-1.039zm-1.04 31.19h-4.159v-29.11h4.159v29.11zM6.238 23.713a4.163 4.163 0 0 0-4.159 4.159 4.163 4.163 0 0 0 4.159 4.159 4.163 4.163 0 0 0 4.158-4.159 4.163 4.163 0 0 0-4.158-4.159zm0 6.238a2.081 2.081 0 0 1-2.08-2.079c0-1.146.932-2.08 2.08-2.08 1.148 0 2.08.934 2.08 2.08s-.932 2.08-2.08 2.08zM18.713 13.317a4.163 4.163 0 0 0-4.158 4.159 4.163 4.163 0 0 0 4.158 4.158 4.163 4.163 0 0 0 4.159-4.158 4.163 4.163 0 0 0-4.159-4.159zm0 6.238a2.081 2.081 0 0 1-2.079-2.08c0-1.145.932-2.079 2.08-2.079 1.147 0 2.079.934 2.079 2.08 0 1.145-.932 2.079-2.08 2.079zM31.19 17.476a4.163 4.163 0 0 0-4.16 4.158 4.163 4.163 0 0 0 4.16 4.159 4.163 4.163 0 0 0 4.158-4.159 4.163 4.163 0 0 0-4.159-4.158zm0 6.237a2.081 2.081 0 0 1-2.08-2.079c0-1.146.931-2.079 2.08-2.079 1.147 0 2.078.934 2.078 2.08 0 1.145-.931 2.078-2.079 2.078zM43.665 5a4.163 4.163 0 0 0-4.159 4.159 4.163 4.163 0 0 0 4.159 4.158 4.163 4.163 0 0 0 4.158-4.158A4.163 4.163 0 0 0 43.665 5zm0 6.238a2.081 2.081 0 0 1-2.08-2.08c0-1.145.932-2.079 2.08-2.079 1.147 0 2.079.934 2.079 2.08 0 1.145-.932 2.079-2.08 2.079z"/>
            <path d="M42.197 10.627a1.04 1.04 0 0 0-1.47 0l-8.068 8.067a1.04 1.04 0 0 0 1.47 1.47l8.068-8.067a1.04 1.04 0 0 0 0-1.47zM28.675 19.235l-6.678-1.905a1.03 1.03 0 0 0-1.283.715 1.04 1.04 0 0 0 .713 1.285l6.678 1.905a1.04 1.04 0 0 0 .57-2zM17.092 18.771a1.04 1.04 0 0 0-1.46-.166l-7.839 6.25a1.039 1.039 0 0 0 .649 1.853c.226 0 .455-.075.646-.225l7.84-6.25c.449-.36.523-1.013.164-1.462z"/>
        </g>
    </g>
</svg>